<svg width="48" height="48" viewBox="0 0 49 49" fill="none" xmlns="http://www.w3.org/2000/svg">
<g filter="url(#filter0_d_3735_30)">
<circle cx="24.2303" cy="20.2303" r="19.7303" stroke="white"/>
<path d="M15.5937 13.0611H33.4063C33.734 13.0611 34 12.5994 34 12.0306C34 11.4616 33.734 11 33.4063 11H15.5937C15.266 11 15 11.4617 15 12.0306C15 12.5994 15.266 13.0611 15.5937 13.0611Z" fill="white"/>
<path d="M33.4063 19.061H15.5937C15.266 19.061 15 19.5228 15 20.0916C15 20.6604 15.266 21.1221 15.5937 21.1221H33.4063C33.734 21.1221 34 20.6604 34 20.0916C34 19.5228 33.734 19.061 33.4063 19.061Z" fill="white"/>
<path d="M33.4063 27.1221H15.5937C15.266 27.1221 15 27.5838 15 28.1526C15 28.7214 15.266 29.1832 15.5937 29.1832H33.4063C33.734 29.1832 34 28.7214 34 28.1526C34 27.5838 33.734 27.1221 33.4063 27.1221Z" fill="white"/>
</g>
<defs>
<filter id="filter0_d_3735_30" x="0" y="0" width="48.4605" height="48.4604" filterUnits="userSpaceOnUse" color-interpolation-filters="sRGB">
<feFlood flood-opacity="0" result="BackgroundImageFix"/>
<feColorMatrix in="SourceAlpha" type="matrix" values="0 0 0 0 0 0 0 0 0 0 0 0 0 0 0 0 0 0 127 0" result="hardAlpha"/>
<feOffset dy="4"/>
<feGaussianBlur stdDeviation="2"/>
<feComposite in2="hardAlpha" operator="out"/>
<feColorMatrix type="matrix" values="0 0 0 0 0 0 0 0 0 0 0 0 0 0 0 0 0 0 0.25 0"/>
<feBlend mode="normal" in2="BackgroundImageFix" result="effect1_dropShadow_3735_30"/>
<feBlend mode="normal" in="SourceGraphic" in2="effect1_dropShadow_3735_30" result="shape"/>
</filter>
</defs>
</svg>
